<svg width="132" height="54" viewBox="0 0 132 54" fill="none" xmlns="http://www.w3.org/2000/svg">
<path d="M12.492 26.36C9.132 26.36 6.384 25.256 4.248 23.048C2.136 20.84 1.08 17.624 1.08 13.4C1.08 9.152 2.148 5.936 4.284 3.752C6.444 1.568 9.216 0.475998 12.6 0.475998C16.008 0.475998 18.756 1.556 20.844 3.716C22.932 5.852 23.976 9.104 23.976 13.472C23.976 17.816 22.908 21.056 20.772 23.192C18.636 25.304 15.876 26.36 12.492 26.36ZM12.528 7.388C11.376 7.388 10.404 7.916 9.612 8.972C8.844 10.028 8.46 11.516 8.46 13.436C8.46 15.332 8.832 16.796 9.576 17.828C10.32 18.836 11.292 19.34 12.492 19.34C13.716 19.34 14.7 18.824 15.444 17.792C16.212 16.76 16.596 15.284 16.596 13.364C16.596 11.444 16.2 9.968 15.408 8.936C14.64 7.904 13.68 7.388 12.528 7.388ZM52.0664 26.036C49.9304 26.036 48.8624 25.796 48.8624 25.316L48.1064 10.88L43.7144 25.496C43.6184 25.784 42.8024 25.928 41.2664 25.928C39.7304 25.928 38.9384 25.796 38.8904 25.532L34.3544 10.736L33.8504 25.1C33.8264 25.46 33.3704 25.712 32.4824 25.856C31.5944 25.976 30.8504 26.036 30.2504 26.036C29.6744 26.036 29.1104 26 28.5584 25.928C27.4064 25.76 26.8424 25.46 26.8664 25.028L27.6944 1.628C27.6944 1.052 29.1584 0.763999 32.0864 0.763999C32.9504 0.763999 34.0064 0.835999 35.2544 0.979998C36.5024 1.1 37.1984 1.352 37.3424 1.736L41.3744 13.076L44.9024 1.7C45.1184 1.076 46.7744 0.763999 49.8704 0.763999C50.7584 0.763999 51.8144 0.835999 53.0384 0.979998C54.2864 1.1 54.9104 1.328 54.9104 1.664L55.9544 25.28C55.9544 25.544 55.4864 25.736 54.5504 25.856C53.6144 25.976 52.7864 26.036 52.0664 26.036ZM76.4466 26.072C74.3586 26.072 73.2306 25.736 73.0626 25.064L71.8746 20.42H66.1506L65.1066 24.884C64.9626 25.628 63.8106 26 61.6506 26C60.4986 26 59.6466 25.94 59.0946 25.82C58.5426 25.676 58.2666 25.568 58.2666 25.496L64.6386 1.124C64.6386 0.931998 66.2826 0.835998 69.5706 0.835998C72.8586 0.835998 74.5026 0.931998 74.5026 1.124L80.7306 25.532C80.7306 25.7 80.1786 25.832 79.0746 25.928C77.9706 26.024 77.0946 26.072 76.4466 26.072ZM67.0506 15.848H70.8306L69.2106 8.396H68.9946L67.0506 15.848ZM102.7 25.388C102.7 25.796 101.488 26 99.0644 26C96.6404 26 95.4284 25.796 95.4284 25.388V17.108H90.3884V25.388C90.3884 25.796 89.1764 26 86.7524 26C84.3284 26 83.1164 25.796 83.1164 25.388V1.52C83.1164 1.016 84.3284 0.763999 86.7524 0.763999C89.1764 0.763999 90.3884 1.016 90.3884 1.52V9.98H95.4284V1.592C95.4284 1.256 96.0284 1.016 97.2284 0.872C97.8524 0.823999 98.4644 0.799998 99.0644 0.799998L100.9 0.872C102.1 1.016 102.7 1.256 102.7 1.592V25.388ZM9 52.496C9 52.856 7.872 53.036 5.616 53.036L3.6 52.928C2.4 52.832 1.8 52.664 1.8 52.424V28.268C1.8 27.86 3 27.656 5.4 27.656C7.8 27.656 9 27.86 9 28.268V37.484L13.392 28.268C13.56 27.932 14.52 27.764 16.272 27.764C19.464 27.764 21.144 28.04 21.312 28.592C21.312 28.64 21.3 28.688 21.276 28.736L15.012 40.04L22.284 50.084C22.284 50.132 22.056 50.336 21.6 50.696C20.496 51.656 19.2 52.412 17.712 52.964C17.256 53.132 16.8 53.216 16.344 53.216L15.48 53.144C14.712 52.952 14.112 52.46 13.68 51.668L9.576 43.82H9V52.496ZM31.0002 52.496C31.0002 52.88 29.8602 53.072 27.5802 53.072C25.2762 53.072 24.1242 52.892 24.1242 52.532V29.06C24.1242 28.22 24.5682 27.8 25.4562 27.8H32.3322C38.6442 27.8 41.8002 30.26 41.8002 35.18C41.8002 36.668 41.5122 38.024 40.9362 39.248C40.3602 40.448 39.5442 41.408 38.4882 42.128L43.0242 49.688C42.8322 50.264 42.2082 50.924 41.1522 51.668C39.7122 52.7 38.5242 53.216 37.5882 53.216C36.6522 53.216 35.9562 52.88 35.5002 52.208L32.1162 44.324H31.0002V52.496ZM31.0002 34.172V39.572H31.1802C33.4602 39.572 34.6002 38.624 34.6002 36.728C34.6002 35.864 34.3722 35.228 33.9162 34.82C33.4842 34.388 32.7642 34.172 31.7562 34.172H31.0002ZM57.1306 28.52C57.1306 28.04 58.4266 27.8 61.0186 27.8C63.6346 27.8 64.9426 28.04 64.9426 28.52V45.044C64.9426 47.492 64.0666 49.496 62.3146 51.056C60.5626 52.592 58.1386 53.36 55.0426 53.36C51.9706 53.36 49.4626 52.568 47.5186 50.984C45.5986 49.376 44.6386 47.216 44.6386 44.504V28.556C44.6386 28.076 45.9346 27.836 48.5266 27.836C51.1426 27.836 52.4506 28.076 52.4506 28.556V44.792C52.4506 45.272 52.7026 45.656 53.2066 45.944C53.7346 46.232 54.2866 46.376 54.8626 46.376C55.4386 46.376 55.9546 46.244 56.4106 45.98C56.8906 45.716 57.1306 45.32 57.1306 44.792V28.52ZM71.0961 53.072C68.9121 53.072 67.8201 52.832 67.8201 52.352V29.024C67.8201 28.208 68.1921 27.8 68.9361 27.8H75.2721C78.8241 27.8 81.3801 28.532 82.9401 29.996C84.5241 31.46 85.3161 33.584 85.3161 36.368C85.3161 38.672 84.5721 40.784 83.0841 42.704C82.3401 43.664 81.2481 44.432 79.8081 45.008C78.3681 45.584 76.6881 45.872 74.7681 45.872V52.316C74.7681 52.604 74.3121 52.808 73.4001 52.928C72.5121 53.024 71.7441 53.072 71.0961 53.072ZM74.7681 34.064V39.752H75.2361C76.0761 39.752 76.7841 39.488 77.3601 38.96C77.9361 38.432 78.2241 37.688 78.2241 36.728C78.2241 35.768 78.0201 35.084 77.6121 34.676C77.2281 34.268 76.5321 34.064 75.5241 34.064H74.7681ZM100.267 28.52C100.267 28.04 101.563 27.8 104.155 27.8C106.771 27.8 108.079 28.04 108.079 28.52V45.044C108.079 47.492 107.203 49.496 105.451 51.056C103.699 52.592 101.275 53.36 98.1793 53.36C95.1073 53.36 92.5993 52.568 90.6553 50.984C88.7353 49.376 87.7753 47.216 87.7753 44.504V28.556C87.7753 28.076 89.0713 27.836 91.6633 27.836C94.2793 27.836 95.5873 28.076 95.5873 28.556V44.792C95.5873 45.272 95.8393 45.656 96.3433 45.944C96.8713 46.232 97.4233 46.376 97.9993 46.376C98.5753 46.376 99.0913 46.244 99.5473 45.98C100.027 45.716 100.267 45.32 100.267 44.792V28.52ZM118.301 52.496C118.301 52.856 117.173 53.036 114.917 53.036L112.901 52.928C111.701 52.832 111.101 52.664 111.101 52.424V28.268C111.101 27.86 112.301 27.656 114.701 27.656C117.101 27.656 118.301 27.86 118.301 28.268V37.484L122.693 28.268C122.861 27.932 123.821 27.764 125.573 27.764C128.765 27.764 130.445 28.04 130.613 28.592C130.613 28.64 130.601 28.688 130.577 28.736L124.313 40.04L131.585 50.084C131.585 50.132 131.357 50.336 130.901 50.696C129.797 51.656 128.501 52.412 127.013 52.964C126.557 53.132 126.101 53.216 125.645 53.216L124.781 53.144C124.013 52.952 123.413 52.46 122.981 51.668L118.877 43.82H118.301V52.496Z" fill="black"/>
<circle cx="120" cy="13" r="9" fill="#0059FF"/>
</svg>
