<svg width="96" height="35" viewBox="0 0 96 35" fill="none" xmlns="http://www.w3.org/2000/svg">
<path d="M8.496 16.24C5.936 16.24 3.976 15.616 2.616 14.368C1.272 13.12 0.6 11.104 0.6 8.32C0.6 6.4 0.904 4.856 1.512 3.688C2.12 2.504 3.008 1.648 4.176 1.12C5.36 0.575999 6.8 0.303999 8.496 0.303999C10.192 0.303999 11.624 0.575999 12.792 1.12C13.976 1.648 14.872 2.504 15.48 3.688C16.088 4.856 16.392 6.4 16.392 8.32C16.392 11.104 15.712 13.12 14.352 14.368C12.992 15.616 11.04 16.24 8.496 16.24ZM8.496 12.4C9.648 12.4 10.48 12.08 10.992 11.44C11.52 10.784 11.784 9.744 11.784 8.32C11.784 6.8 11.52 5.728 10.992 5.104C10.48 4.464 9.648 4.144 8.496 4.144C7.344 4.144 6.504 4.464 5.976 5.104C5.464 5.728 5.208 6.8 5.208 8.32C5.208 9.744 5.464 10.784 5.976 11.44C6.504 12.08 7.344 12.4 8.496 12.4ZM18.0722 16V0.543999H22.4642L26.3042 8.392L30.1202 0.543999H34.4882V16H29.9762V8.272L27.5042 13.36H25.0802L22.5842 8.272V16H18.0722ZM36.1781 16L42.1061 0.543999H46.8821L52.8101 16H48.1061L46.8101 12.712H42.1541L40.8821 16H36.1781ZM42.7541 9.472H46.2101L44.4821 4.936L42.7541 9.472ZM54.4941 16V0.543999H59.0061V6.304H64.3341V0.543999H68.8461V16H64.3341V10.24H59.0061V16H54.4941ZM1.08 34V18.544H5.592V23.992L10.272 18.544H15.408L9.96 24.88L15.792 34H10.992L7.176 27.76L5.592 29.536V34H1.08ZM17.4628 34V18.544H25.5028C26.7668 18.544 27.7988 18.776 28.5988 19.24C29.4148 19.704 30.0228 20.352 30.4228 21.184C30.8228 22 31.0228 22.952 31.0228 24.04C31.0228 25.08 30.7588 26 30.2308 26.8C29.7188 27.584 29.0308 28.184 28.1668 28.6C28.3428 28.744 28.4948 28.92 28.6228 29.128C28.7508 29.32 28.8948 29.592 29.0548 29.944L30.8308 34H26.1268L24.4948 30.28C24.3668 29.992 24.2068 29.792 24.0148 29.68C23.8388 29.552 23.5828 29.488 23.2468 29.488H21.9748V34H17.4628ZM21.9748 26.032H24.3508C25.0068 26.032 25.5108 25.864 25.8628 25.528C26.2308 25.176 26.4148 24.68 26.4148 24.04C26.4148 22.68 25.7748 22 24.4948 22H21.9748V26.032ZM39.8972 34.24C38.4572 34.24 37.1852 34.008 36.0812 33.544C34.9932 33.064 34.1372 32.368 33.5132 31.456C32.8892 30.528 32.5772 29.392 32.5772 28.048V18.544H37.0892V27.568C37.0892 29.456 38.0252 30.4 39.8972 30.4C40.7932 30.4 41.4812 30.168 41.9612 29.704C42.4412 29.24 42.6812 28.528 42.6812 27.568V18.544H47.1932V28.048C47.1932 29.392 46.8812 30.528 46.2572 31.456C45.6492 32.368 44.7932 33.064 43.6892 33.544C42.6012 34.008 41.3372 34.24 39.8972 34.24ZM49.2441 34V18.544H57.2121C58.4761 18.544 59.5161 18.8 60.3321 19.312C61.1641 19.808 61.7801 20.488 62.1801 21.352C62.5801 22.216 62.7801 23.176 62.7801 24.232C62.7801 25.32 62.5481 26.288 62.0841 27.136C61.6201 27.984 60.9641 28.648 60.1161 29.128C59.2681 29.608 58.2681 29.848 57.1161 29.848H53.7561V34H49.2441ZM53.7561 26.392H56.0841C56.7881 26.392 57.3081 26.192 57.6441 25.792C57.9961 25.392 58.1721 24.872 58.1721 24.232C58.1721 23.544 58.0121 23 57.6921 22.6C57.3721 22.2 56.8761 22 56.2041 22H53.7561V26.392ZM71.1863 34.24C69.7463 34.24 68.4743 34.008 67.3703 33.544C66.2823 33.064 65.4263 32.368 64.8023 31.456C64.1783 30.528 63.8663 29.392 63.8663 28.048V18.544H68.3783V27.568C68.3783 29.456 69.3143 30.4 71.1863 30.4C72.0823 30.4 72.7703 30.168 73.2503 29.704C73.7303 29.24 73.9703 28.528 73.9703 27.568V18.544H78.4823V28.048C78.4823 29.392 78.1703 30.528 77.5463 31.456C76.9383 32.368 76.0823 33.064 74.9783 33.544C73.8903 34.008 72.6263 34.24 71.1863 34.24ZM80.5331 34V18.544H85.0451V23.992L89.7251 18.544H94.8611L89.4131 24.88L95.2451 34H90.4451L86.6291 27.76L85.0451 29.536V34H80.5331Z" fill="black"/>
<circle cx="83" cy="9" r="7" fill="#0033FF"/>
</svg>
